<svg xmlns="http://www.w3.org/2000/svg" viewBox="0 0 1900 248">
      <g id="Layer_2" data-name="Layer 2">
        <g id="Layer_1-2" data-name="Layer 1">
          <ellipse cx="102.5" cy="143.5" rx="102.5" ry="79.5" />
          <ellipse cx="992.5" cy="136.5" rx="102.5" ry="79.5" />
          <ellipse cx="782.5" cy="168.5" rx="102.5" ry="79.5" />
          <ellipse cx="1641.5" cy="168.5" rx="102.5" ry="79.5" />
          <ellipse cx="650.5" cy="144.5" rx="102.5" ry="79.5" />
          <ellipse cx="1522.5" cy="140.5" rx="102.5" ry="79.5" />
          <ellipse cx="224" cy="170.5" rx="74" ry="57.5" />
          <ellipse cx="1096" cy="166.5" rx="74" ry="57.5" />
          <ellipse cx="298" cy="149.5" rx="74" ry="57.5" />
          <ellipse cx="1164" cy="149.5" rx="74" ry="57.5" />
          <ellipse cx="564" cy="127.5" rx="74" ry="57.5" />
          <ellipse cx="1429" cy="159.5" rx="74" ry="57.5" />
          <ellipse cx="396" cy="156" rx="71" ry="72" />
          <ellipse cx="1268" cy="152" rx="71" ry="72" />
          <ellipse cx="887.5" cy="152" rx="77.5" ry="61" />
          <ellipse cx="1815.5" cy="143" rx="84.5" ry="61" />
          <ellipse cx="499.5" cy="149" rx="77.5" ry="61" />
          <ellipse cx="1351.5" cy="148" rx="77.5" ry="61" />
          <rect width="1900" height="143" />
        </g>
      </g>
    </svg>